<svg xmlns="http://www.w3.org/2000/svg" width="430" height="430" style="width:100%;height:100%;transform:translate3d(0,0,0);content-visibility:visible" viewBox="0 0 430 430"><defs><clipPath id="e"><path d="M0 0h430v430H0z"/></clipPath><clipPath id="f"><path d="M0 0h430v430H0z"/></clipPath><clipPath id="d"><path d="M0 0h430v430H0z"/></clipPath><filter id="a" width="100%" height="100%" x="0%" y="0%" filterUnits="objectBoundingBox"><feComponentTransfer in="SourceGraphic"><feFuncA tableValues="1.0 0.0" type="table"/></feComponentTransfer></filter><mask id="g" mask-type="alpha"><g filter="url(#a)"><path fill="#fff" d="M0 0h430v430H0z" opacity="0"/><use xmlns:a0="http://www.w3.org/1999/xlink" a0:href="#b"/></g></mask><g id="b" fill="red" clip-path="url(#d)" style="display:block"><path d="M-30.333 0c0 16.752 13.581 30.333 30.333 30.333S30.333 16.752 30.333 0 16.752-30.333 0-30.333-30.333-16.752-30.333 0" style="display:block" transform="translate(98.463 344.718)"/><path d="M-30.333 0c0 16.752 13.581 30.333 30.333 30.333S30.333 16.752 30.333 0 16.752-30.333 0-30.333-30.333-16.752-30.333 0" style="display:block" transform="translate(297.202 344.718)"/></g></defs><g clip-path="url(#e)"><g fill="none" stroke-linecap="round" stroke-linejoin="round" stroke-width="12" clip-path="url(#f)" style="display:block"><g mask="url(#g)" style="display:block"><path stroke="#07A889" d="M387.531 225.537h-56.896v40.408h57.827m-57.827 30.535h9.464" class="secondary"/><path stroke="#121330" d="M84.928 295.369H254.28m-156.602 0v-72.384m143.852 0v72.384M91.7 129.639c-.36 0-.72-.01-1.08-.04-6.14-.46-11.9-4.6-14.22-10.32-1.47-3.62-1.62-7.64-1.41-11.54.11-2.08 3.45-24.61 15.85-40.04 3.76-4.68 7.72-8.33 13.19-11.85" class="primary"/><path stroke="#07A889" d="M171.39 42.809a7 7 0 0 1-.37-.42q-1.38-1.53-2.58-3.21c-3.25-4.54-6.77-10.65-13.04-11-7.41-.42-12.4 7.78-17.69 11.67-5.63 4.13-12.62 4.56-19.3 5.42-4.31.56-8.35 1.59-10.99 4.56-.27.31-.52.64-.76.98-.93 1.35-1.52 2.89-1.88 4.54-1.46 6.62.64 15.11-1.26 20.82-2.77 8.31-13.23 16.1-11.84 23.88 1.2 6.71 9.36 9.86 15.81 13.77l.15.09c.05.03.11.07.16.1m156.511 108.476H76.897v-29.484h187.414z" class="secondary"/><path stroke="#121330" d="M297.669 343.837H41.537v-182.53h256.132zm0-150.709h52.789c20.987 0 38 17.013 38 38v112.709h-90.789m-49.57-215.22-.041.921-156.857.059c5.191.003 10.311-2.679 13.265-6.947 3.918-5.662 3.822-13.048 4.625-19.886 2.148-18.289 28.307-62.934 73.504-60.201 9.508.575 18.916 3.022 27.427 7.317 16.88 8.518 30.018 24.244 35.181 42.433 3.33 11.73 3.423 24.113 2.896 36.304M147.998 99.791l.093.003m31.225-.003.094.003m31.225-.003.094.003m-46.465-17.953.094.003m31.225-.003.093.003m24.229 47.799v31.664m-100.27-31.664v31.664" class="primary"/></g><g style="display:block"><path stroke="#121330" d="M68.13 344.718c0 16.752 13.581 30.333 30.333 30.333s30.333-13.581 30.333-30.333-13.581-30.333-30.333-30.333-30.333 13.581-30.333 30.333" class="primary"/><path stroke="#07A889" d="M98.395 344.718h.136" class="secondary"/></g><g style="display:block"><path stroke="#121330" d="M266.869 344.718c0 16.752 13.581 30.333 30.333 30.333s30.333-13.581 30.333-30.333-13.581-30.333-30.333-30.333-30.333 13.581-30.333 30.333" class="primary"/><path stroke="#07A889" d="M297.134 344.718h.136" class="secondary"/></g></g></g></svg>